<?xml version="1.0" encoding="UTF-8"?>
<svg version="1.1" xmlns="http://www.w3.org/2000/svg" width="256" height="256">
<path d="M0 0 C1.43631271 -0.00525696 1.43631271 -0.00525696 2.90164185 -0.01062012 C6.03622908 -0.01935191 9.17058664 -0.0136177 12.30517578 -0.00683594 C14.504161 -0.00818526 16.70314592 -0.01012803 18.90213013 -0.01263428 C23.49988662 -0.01557416 28.09756512 -0.01132531 32.6953125 -0.00195312 C38.56123522 0.00942715 44.42697458 0.00288363 50.29289055 -0.00909805 C54.8313228 -0.01635886 59.3697123 -0.01400918 63.9081459 -0.00884247 C66.06969347 -0.00751693 68.23124504 -0.00911488 70.39278793 -0.01380157 C91.72464195 -0.04990386 108.78780684 1.19301197 125.13720703 16.35644531 C136.87160395 28.67197427 140.002338 43.65749047 140.05249023 60.09277344 C140.05906143 61.04359802 140.06563263 61.99442261 140.07240295 62.97406006 C140.09200488 66.10022075 140.10377093 69.22633362 140.11376953 72.35253906 C140.11784506 73.42848831 140.12192059 74.50443756 140.12611961 75.61299133 C140.1469274 81.31132816 140.16125035 87.0096413 140.1706543 92.70800781 C140.18169083 98.55352521 140.21607459 104.39865907 140.255826 110.24404144 C140.28213927 114.77405439 140.29035925 119.30397805 140.29393578 123.83406067 C140.29876593 125.98674603 140.31027603 128.13942839 140.32897377 130.29203796 C140.49026919 150.0964122 138.85100792 167.83064836 124.68798828 183.07128906 C112.64601191 194.37474559 98.94815296 198.40058645 82.85375977 198.41992188 C81.85939407 198.42488678 80.86502838 198.42985168 79.8405304 198.43496704 C76.55920715 198.44953974 73.27793229 198.45638369 69.99658203 198.46191406 C67.70459493 198.46767097 65.41260783 198.47342863 63.12062073 198.47918701 C58.31486793 198.4896841 53.50913179 198.49553475 48.70336914 198.49902344 C42.5728389 198.50449541 36.44253217 198.52850134 30.3120718 198.55699539 C25.5754382 198.5757073 20.83885744 198.58083199 16.10219002 198.58235931 C13.84376877 198.58536874 11.58534807 198.5933388 9.32696342 198.60654449 C-10.61288871 198.71478764 -27.45310321 197.52377066 -42.93701172 183.32128906 C-54.21891402 171.34663838 -58.44288633 156.96028886 -58.39916992 140.76708984 C-58.40428085 139.77053375 -58.40939178 138.77397766 -58.41465759 137.7472229 C-58.42845373 134.48278646 -58.42760437 131.21856352 -58.42529297 127.95410156 C-58.42918533 125.66543501 -58.43352111 123.37676917 -58.4382782 121.08810425 C-58.44571895 116.30203912 -58.44546467 111.51604778 -58.44018555 106.72998047 C-58.43439346 100.62186661 -58.45132639 94.51405623 -58.47453022 88.40599251 C-58.48932061 83.68226378 -58.49013205 78.95860725 -58.48702049 74.23485947 C-58.48753102 71.98399123 -58.49271792 69.73311867 -58.50283241 67.4822731 C-58.58135037 47.56748102 -57.06213992 30.66470175 -42.54248047 15.51269531 C-30.35936229 4.15621843 -16.40826353 -0.0754636 0 0 Z " fill="#F4AB67" transform="translate(91.12451171875,28.7412109375)"/>
<path d="M0 0 C2.35717773 0.203125 2.35717773 0.203125 5 1 C9.65680643 8.07166548 9.58588008 16.84388231 9.4375 25 C9.44458984 26.09828125 9.45167969 27.1965625 9.45898438 28.328125 C9.34171883 43.55460476 4.38708492 55.96351888 -6.3125 66.9375 C-16.83674745 76.95646808 -28.44446379 79.71794638 -42.6015625 79.37890625 C-51.57930552 78.84755489 -57.64155842 73.94376061 -64 68 C-68.69888286 72.32352831 -72.26490665 76.6280915 -75.4453125 82.1796875 C-77 84 -77 84 -79.53125 84.85546875 C-82 85 -82 85 -84.375 83.4375 C-86 81 -86 81 -85.81640625 78.1796875 C-82.84782035 66.61782662 -71.09231357 57.3783632 -61.4375 51.25 C-50.58772512 45.20673161 -37.46991678 41.78432202 -25.0625 41.9375 C-24.10472656 41.94652344 -23.14695313 41.95554688 -22.16015625 41.96484375 C-21.44730469 41.97644531 -20.73445313 41.98804688 -20 42 C-20 40.68 -20 39.36 -20 38 C-36.16374372 38.40009267 -49.87957377 40.81215299 -64.20703125 48.51171875 C-67 50 -67 50 -70 51 C-70.95730161 41.99427375 -69.07387785 35.50096993 -64 28 C-58.1867473 21.21233542 -50.97111809 16.61354959 -41.94921875 15.68652344 C-38.67139907 15.59926202 -35.40379839 15.60021298 -32.125 15.625 C-18.58175601 15.4590259 -18.58175601 15.4590259 -7 9 C-4.34330819 6.1729484 -2.06960947 3.27931078 0 0 Z " fill="#FEFDFC" transform="translate(170,84)"/>
</svg>
